<svg width="1068" height="1069" viewBox="0 0 1068 1069" fill="none" xmlns="http://www.w3.org/2000/svg">
<path d="M0 370.74C0 241.247 0 176.5 25.2011 127.04C47.3686 83.5339 82.7402 48.1623 126.246 25.9948C175.706 0.793701 240.453 0.793701 369.946 0.793701H698.054C827.547 0.793701 892.294 0.793701 941.754 25.9948C985.26 48.1623 1020.63 83.5339 1042.8 127.04C1068 176.5 1068 241.247 1068 370.74V698.847C1068 828.341 1068 893.087 1042.8 942.547C1020.63 986.053 985.26 1021.43 941.754 1043.59C892.294 1068.79 827.547 1068.79 698.054 1068.79H369.946C240.453 1068.79 175.706 1068.79 126.246 1043.59C82.7402 1021.43 47.3686 986.053 25.2011 942.547C0 893.087 0 828.341 0 698.847V370.74Z" fill="#6568F4"/>
<path fill-rule="evenodd" clip-rule="evenodd" d="M150.726 699.782C150.726 774.95 189.652 821.483 250.502 821.483C283.612 821.483 307.773 803.586 316.721 791.505H317.616V814.324H389.205L389.205 585.203L317.616 585.203L317.616 608.06H316.721C307.773 595.979 283.612 578.082 250.502 578.082C189.652 578.082 150.726 624.614 150.726 699.782ZM313.103 711.341C321.702 679.248 309.36 648.055 285.535 641.672C261.711 635.288 235.426 656.13 226.826 688.224C218.227 720.317 230.569 751.509 254.394 757.893C278.218 764.277 304.503 743.435 313.103 711.341Z" fill="#F7F7FC"/>
<path fill-rule="evenodd" clip-rule="evenodd" d="M557.727 578.082C618.577 578.082 657.503 624.614 657.503 699.782C657.503 774.95 618.577 821.483 557.727 821.483C524.617 821.483 500.456 803.586 491.507 791.505H490.612V893.519H419.024V585.241H490.612V608.06H491.507C500.456 595.979 524.617 578.082 557.727 578.082ZM553.835 641.672C577.659 648.055 590.002 679.248 581.402 711.341C572.803 743.435 546.518 764.277 522.693 757.893C498.869 751.509 486.526 720.317 495.126 688.224C503.725 656.13 530.01 635.288 553.835 641.672Z" fill="#F7F7FC"/>
<path fill-rule="evenodd" clip-rule="evenodd" d="M817.497 578.082C878.347 578.082 917.273 624.614 917.273 699.782C917.273 774.95 878.347 821.483 817.497 821.483C784.387 821.483 760.226 803.586 751.278 791.505H750.383V893.519H678.794V585.241H750.383V608.06H751.278C760.226 595.979 784.387 578.082 817.497 578.082ZM841.173 711.341C849.772 679.248 837.43 648.055 813.605 641.672C789.781 635.288 763.496 656.13 754.896 688.224C746.297 720.317 758.639 751.509 782.464 757.893C806.288 764.277 832.573 743.435 841.173 711.341Z" fill="#F7F7FC"/>
<path d="M455.283 224.576C474.792 224.576 490.606 208.762 490.606 189.253C490.606 169.745 474.792 153.93 455.283 153.93H454.341C434.833 153.93 419.018 169.745 419.018 189.253C419.018 208.762 434.833 224.576 454.341 224.576H455.283Z" fill="#F7F7FC"/>
<path d="M419.018 478.753H490.606V249.67H419.018V478.753Z" fill="#F7F7FC"/>
<path fill-rule="evenodd" clip-rule="evenodd" d="M317.616 249.67V272.489H316.721C307.773 260.409 283.612 242.511 250.502 242.511C189.652 242.511 150.726 289.044 150.726 364.212C150.726 439.38 189.652 485.912 250.502 485.912C283.612 485.912 307.773 468.015 316.721 455.934H317.616V557.948H389.205V249.67H317.616ZM313.103 374.368C321.702 342.274 309.36 311.082 285.535 304.698C261.711 298.314 235.426 319.156 226.826 351.25C218.227 383.343 230.569 414.536 254.394 420.919C278.218 427.303 304.503 406.461 313.103 374.368Z" fill="#F7F7FC"/>
<path d="M511.664 364.211C511.664 435.799 557.302 486.358 629.785 486.358C685.844 486.358 728.475 454.877 739.843 396.779L667.981 394.891C660.174 412.405 645.937 424.124 629.668 424.124C605.003 424.124 585.008 397.187 585.008 363.958C585.008 330.73 605.003 303.793 629.668 303.793C646.398 303.793 660.979 316.186 668.63 334.529L740.218 333.352C729.537 274.163 687.094 242.063 627.995 242.063C557.302 242.063 511.664 293.07 511.664 364.211Z" fill="#F7F7FC"/>
</svg>
